<?xml version="1.0" encoding="utf-8"?>
<!-- Generator: Adobe Illustrator 18.1.1, SVG Export Plug-In . SVG Version: 6.00 Build 0)  -->
<svg version="1.1" id="圖層_1" xmlns="http://www.w3.org/2000/svg" xmlns:xlink="http://www.w3.org/1999/xlink" x="0px" y="0px"
	 viewBox="0 0 120 60" enable-background="new 0 0 120 60" xml:space="preserve">
<g>
	<path fill="#333333" d="M27.3,36.7H24l-6.5-18.8l0.4-0.6h5.6V4.4h-8v32.3h-3.1V1.6h11.7c0.7,0,1.3,0.2,1.8,0.7
		c0.5,0.5,0.7,1.1,0.7,1.8v13.3c0,1.7-1.1,2.5-3.4,2.5c-0.2,0-0.6,0-1,0c-0.4,0-0.7,0-0.9,0C23.3,25.5,25.3,31.1,27.3,36.7z"/>
	<path fill="#333333" d="M43.8,34.2c0,1.7-0.8,2.5-2.5,2.5h-7.2c-1.7,0-2.5-0.8-2.5-2.5V17.4c0-1.7,0.8-2.5,2.5-2.5h7.2
		c1.7,0,2.5,0.8,2.5,2.5v7.8l-1,1.1h-8.3v7.9H41v-4h2.9V34.2z M41,24v-6.6h-6.4V24H41z"/>
	<path fill="#333333" d="M60.6,36.7h-3l-3.7-8.6l-3.7,8.6h-2.9v-0.1l5.1-11.1l-4.8-10.6h3l3.4,8l3.4-8h2.9V15l-4.8,10.4L60.6,36.7z"
		/>
	<path fill="#333333" d="M76.4,4.4H71v32.3h-3.1V4.4h-5.5V1.6h14V4.4z"/>
	<path fill="#333333" d="M91.9,34.2c0,1.7-0.8,2.5-2.5,2.5h-7.2c-1.7,0-2.5-0.8-2.5-2.5V17.4c0-1.7,0.8-2.5,2.5-2.5h7.2
		c1.7,0,2.5,0.8,2.5,2.5v7.8l-1,1.1h-8.3v7.9H89v-4h2.9V34.2z M89,24v-6.6h-6.4V24H89z"/>
	<path fill="#333333" d="M109.1,36.7h-3.2l-6-11.1v11.1h-3V1.6h3v22.3l5.6-9h3.2V15l-6.3,9.6L109.1,36.7z"/>
	<path fill="#333333" d="M12.4,50l-0.1,0.1c0,0.1-0.1,0.1-0.2,0.1c0,0-0.1,0-0.3,0.1c-0.2,0.1-0.3,0.1-0.5,0.1l-0.2,0
		c-0.1,0-0.3,0-0.4-0.1c-0.1-0.1-0.2-0.2-0.3-0.2c-0.1-0.1-0.1-0.3-0.2-0.6c-0.1-0.3-0.2-0.5-0.2-0.6c0-0.2,0.1-0.4,0.2-0.4
		c0,0,0-0.1-0.1-0.2c-0.1-0.1-0.1-0.2-0.1-0.2c0-0.4,0.1-0.7,0.2-0.9c-0.1-0.2-0.1-0.4-0.1-0.4c0,0,0-0.1,0-0.1
		c0-0.1,0.1-0.2,0.1-0.2c0-0.1,0-0.1,0.1-0.2l0-0.2c0-0.1,0.1-0.1,0.1-0.1c0,0,0.1,0,0.1-0.1v-0.1l0-0.1c0-0.2,0-0.3,0.1-0.4
		c0.1-0.1,0.1-0.2,0.2-0.3c0-0.1,0.1-0.2,0.1-0.3c0,0,0.1-0.1,0.1-0.2l0.1-0.3l0.1-0.3c0-0.1,0-0.1,0.1-0.1c0.1,0,0.1,0,0.1-0.1
		l0-0.1c0-0.1,0.1-0.2,0.1-0.3c0-0.1,0.1-0.1,0.2-0.1c0.1-0.2,0.2-0.3,0.2-0.4c0.1-0.1,0.1-0.2,0.1-0.3c0-0.1,0.1-0.2,0.3-0.3
		c0,0,0-0.1,0.1-0.2c0-0.1,0.1-0.2,0.1-0.2c0.1,0,0.1,0,0.1-0.1l0-0.1c0,0,0-0.1,0.1-0.3l0.1-0.2c0.1-0.1,0.1-0.1,0.2-0.1
		c0.1-0.2,0.2-0.3,0.3-0.5c0.1-0.2,0.2-0.3,0.3-0.5c0.1-0.2,0.3-0.3,0.4-0.3l0.3-0.4c0.1-0.1,0.1-0.2,0.2-0.2
		c0.1-0.2,0.3-0.4,0.4-0.4c0,0,0.1-0.1,0.3-0.2c0.1-0.1,0.3-0.2,0.4-0.2c0.1,0,0.2,0.1,0.4,0.3c0.1,0.2,0.2,0.4,0.2,0.5
		c0,0,0,0.1-0.1,0.2c0,0.1-0.1,0.1-0.1,0.2c0,0.1,0,0.3-0.1,0.6c-0.1,0.3-0.1,0.5-0.2,0.6l-0.2,0.5c0,0.1-0.1,0.1-0.1,0.1
		c0,0-0.1,0.1-0.1,0.1l0,0.2h0c-0.1,0.1-0.1,0.2-0.2,0.4c-0.1,0.1-0.2,0.3-0.2,0.4c-0.1,0.1-0.1,0.2-0.1,0.3L14.8,43
		c-0.1,0.2-0.2,0.4-0.3,0.5c-0.1,0-0.1,0.1-0.1,0.2c0,0.1-0.1,0.1-0.1,0.2c-0.1,0-0.1,0.1-0.1,0.2c0,0.1,0,0.2,0,0.2l-0.2,0v0l0,0.3
		c0,0,0,0.1-0.1,0.1c-0.1,0-0.1,0.1-0.1,0.2c0,0.1-0.1,0.2-0.2,0.2c-0.1,0-0.1,0.1-0.1,0.1l0,0.2c0,0-0.1,0.1-0.1,0.2
		c-0.1,0.1-0.1,0.2-0.1,0.2l-0.2,0c0,0-0.1,0.1-0.1,0.3c0,0.1-0.1,0.2-0.2,0.3c-0.3,0.5-0.5,0.7-0.5,0.8c-0.1,0.1-0.1,0.1-0.3,0.1
		c0,0,0,0,0,0c-0.1,0-0.2-0.1-0.4-0.3h0c-0.1,0.3-0.1,0.5-0.2,0.6c0,0-0.1,0.1-0.1,0.2l0.1,0.2v0c0,0.2,0,0.4-0.1,0.6v0.1l0,0.2V49
		l0,0.2c0,0.1,0.1,0.2,0.1,0.2c0,0.2,0,0.3,0.1,0.3c0,0,0.1-0.1,0.2-0.2l0.1-0.1c0.1,0,0.2-0.2,0.3-0.3c0.1-0.2,0.1-0.3,0.1-0.4
		c0-0.1-0.1-0.2-0.4-0.2c-0.1,0-0.2-0.2-0.2-0.4c0-0.1,0-0.2,0.1-0.3c0.1-0.1,0.2-0.2,0.2-0.3c0.1-0.2,0.3-0.3,0.5-0.3l0.5-0.2
		c0,0,0.1,0,0.1,0c0,0,0.1,0,0.2,0.1c0.2-0.1,0.3-0.1,0.3-0.1c0.2,0,0.4,0.1,0.4,0.3c0,0,0,0.1,0.1,0.1c0.2,0,0.4-0.1,0.5-0.2
		c0.1-0.1,0.3-0.2,0.4-0.3c0.2-0.1,0.3-0.2,0.4-0.3c0.1-0.1,0.2-0.1,0.2-0.1h0.1c0,0,0,0,0.1-0.1c0.1-0.1,0.2-0.1,0.3-0.1
		c0.1,0,0.1,0,0.1,0.1c0,0.3,0,0.5-0.1,0.6c-0.1,0.1-0.2,0.2-0.3,0.4l-0.1,0.1c-0.1,0.1-0.1,0.1-0.2,0.2c0,0.1-0.1,0.1-0.1,0.1
		c-0.1,0.2-0.2,0.3-0.3,0.3c0,0-0.1,0-0.1,0c0,0-0.1,0-0.1,0c0,0-0.1,0.1-0.1,0.2c0,0.1-0.1,0.1-0.3,0.3c0,0-0.1,0-0.1-0.1
		c0,0,0,0,0,0c-0.1,0-0.2,0.1-0.2,0.2c0,0.1-0.1,0.2-0.2,0.2l-0.4,0.1l-0.2,0c0,0-0.2,0.1-0.3,0.4c-0.2,0.3-0.3,0.4-0.3,0.5
		c-0.2,0.1-0.3,0.2-0.4,0.3L12.4,50z M15.5,39.7v-0.1c-0.1,0-0.2,0.2-0.3,0.4L15.1,40c-0.1,0.1-0.2,0.2-0.3,0.3
		c-0.1,0.1-0.2,0.3-0.3,0.5l0,0.1l-0.2,0.3l0,0.2c0,0-0.1,0.1-0.1,0.1c-0.1,0.1-0.1,0.1-0.2,0.2c0,0.1-0.1,0.2-0.2,0.3
		c-0.1,0.1-0.2,0.2-0.2,0.3c0,0-0.1,0.2-0.2,0.5l-0.1,0.1c0,0.1,0,0.1-0.1,0.1l-0.3,0.4c0,0,0,0.1,0,0.3c-0.1,0-0.1,0-0.2,0.1
		l-0.1,0.3c0,0,0,0.1-0.1,0.1c-0.1,0.3-0.2,0.5-0.3,0.6l-0.2,0.4c0,0,0,0.1-0.1,0.2l0,0.1c-0.1,0.1-0.1,0.2-0.1,0.3c0,0,0,0.1,0,0.2
		h0c0,0,0,0,0.1,0c0,0,0.1-0.1,0.1-0.1c0.1,0,0.1-0.1,0.1-0.2c0-0.1,0.1-0.2,0.2-0.2c0.1,0,0.1-0.1,0.2-0.1l0.5-0.7
		c0,0,0.1-0.1,0.1-0.2c0.1-0.1,0.1-0.1,0.1-0.1l0.1-0.1c0,0,0.1-0.1,0.2-0.2c0.1-0.1,0.2-0.2,0.2-0.2c0,0,0.1-0.1,0.1-0.2
		c0-0.1,0-0.2,0.1-0.2l0-0.1c0.1-0.1,0.1-0.1,0.2-0.2c0,0,0.1-0.1,0.1-0.1c0,0,0.1-0.1,0.2-0.2c0-0.1,0.1-0.2,0.2-0.4
		c0.1-0.2,0.2-0.4,0.3-0.5c0.1-0.2,0.1-0.3,0.2-0.3c0.1-0.1,0.1-0.2,0.1-0.3l0.1-0.1l0.3-0.8l0-0.2L15.5,39.7z"/>
	<path fill="#333333" d="M16.6,46l0.1,0l0.1-0.1c0.3-0.2,0.5-0.3,0.6-0.5c0,0,0,0,0.1-0.1c0,0,0.1-0.1,0.1-0.1
		c0.2-0.2,0.5-0.3,0.8-0.3c0.4,0,0.5,0.2,0.6,0.7l0.1,0.1c0,0.1,0.1,0.3,0.2,0.5c0.1,0.3,0.1,0.4,0.1,0.5c0,0.2-0.1,0.3-0.2,0.5
		c-0.1,0-0.3,0.3-0.6,0.7l-0.1,0.1c0,0.1-0.1,0.2-0.2,0.3c-0.1,0-0.2,0.1-0.2,0.1v0.2c0,0,0,0,0,0.1c0,0-0.1,0.1-0.1,0.2l-0.1,0.1
		c0,0,0,0.1-0.1,0.1c0,0.1-0.1,0.1-0.1,0.2c0,0.1-0.1,0.1-0.1,0.1c0,0.1,0.1,0.1,0.3,0.1c0,0,0.1,0,0.1-0.1l0.1,0c0,0,0,0,0.1-0.1
		c0,0,0.1-0.1,0.2-0.1c0.1,0,0.2-0.1,0.3-0.1c0.1,0,0.2-0.1,0.3-0.1c0.1,0,0.2-0.1,0.3-0.2c0.1-0.1,0.2-0.1,0.3-0.2
		c0.1,0,0.2-0.1,0.3-0.2c0.1-0.1,0.2-0.1,0.3-0.2c0.1-0.1,0.3-0.2,0.5-0.4c0.1-0.1,0.2-0.2,0.3-0.2c0,0,0.1-0.1,0.2-0.2
		c0.1-0.2,0.2-0.2,0.3-0.2c0.1,0,0.2,0.1,0.2,0.2c0,0.1,0,0.1-0.1,0.2v0.1l0,0.1c0,0,0,0,0,0.1c0,0,0,0.1-0.1,0.1
		c0,0-0.1,0.1-0.1,0.2c0,0.1-0.1,0.1-0.2,0.1c0,0.1-0.1,0.2-0.1,0.2c-0.1,0-0.1,0.1-0.2,0.2c-0.1,0.1-0.2,0.2-0.4,0.4
		c-0.2,0.1-0.3,0.2-0.4,0.3c-0.1,0.1-0.1,0.1-0.1,0.1c0,0,0,0-0.1,0c0,0-0.1,0-0.1,0c0,0-0.1,0-0.1,0.1l0,0.1
		c-0.1,0-0.1,0.1-0.1,0.1l-0.1,0h0c-0.1,0-0.1,0-0.1,0.1l0.1,0.1v0c0,0.1,0,0.1-0.1,0.1c-0.1,0-0.3,0.1-0.6,0.3l-0.3,0.1l-0.2,0.1
		c-0.1,0-0.1-0.1-0.1-0.1l-0.1,0l-0.3,0c0,0-0.1-0.1-0.3-0.2C17.2,50.2,17,50.1,17,50c0-0.1-0.1-0.2-0.2-0.4
		c-0.1-0.1-0.1-0.2-0.1-0.3c0-0.3,0-0.5,0.1-0.6c0-0.1,0.1-0.2,0.1-0.3c0-0.1,0-0.1,0.1-0.2c0.1-0.1,0.1-0.2,0.1-0.3
		c0.2-0.3,0.3-0.6,0.4-0.6c0.1-0.1,0.1-0.2,0.2-0.3l0.1-0.2c0,0,0-0.1,0.1-0.1c0-0.1,0.1-0.1,0.1-0.1c0-0.1,0.1-0.1,0.1-0.2
		c0-0.2-0.1-0.3-0.2-0.3c0,0-0.1,0-0.1,0.1c0,0.1-0.1,0.1-0.2,0.2c-0.1,0.1-0.2,0.1-0.2,0.1c0,0-0.1,0.1-0.2,0.1
		c-0.1,0-0.2,0.1-0.3,0.2L16.6,47c0,0.1-0.1,0.2-0.1,0.2c0,0-0.1,0-0.3,0.1c0,0,0,0-0.1,0.1c0,0.1-0.1,0.1-0.2,0.1
		c-0.1,0.1-0.1,0.2-0.2,0.3c0,0-0.1,0-0.2,0.1l-0.2,0c0,0-0.1,0.1-0.2,0.2c-0.1,0.1-0.2,0.1-0.3,0.1c-0.1,0-0.1-0.1-0.1-0.2
		c0-0.3,0.1-0.5,0.3-0.7c0.2-0.2,0.4-0.3,0.5-0.3c0.1,0,0.2,0,0.2-0.1c0-0.1,0.1-0.1,0.2-0.1c0.1,0,0.2-0.1,0.3-0.3
		c0.1-0.1,0.3-0.2,0.4-0.3L16.6,46z"/>
	<path fill="#333333" d="M21.4,47.2l0.1-0.1h0.1c0,0,0.1,0,0.2-0.1l0.1,0c0.1-0.2,0.2-0.3,0.3-0.3l0.1-0.1c0,0,0.1,0,0.1-0.1
		c0,0,0.1-0.1,0.2-0.2c0.1-0.1,0.2-0.1,0.2-0.1s0.1,0,0.1,0c0-0.1,0.1-0.1,0.2-0.2c0.1-0.1,0.2-0.2,0.3-0.2l0.1-0.1
		c0.1,0,0.2-0.1,0.3-0.2c0.1-0.1,0.2-0.1,0.3-0.1c0.2,0,0.4,0.1,0.5,0.3c0.2,0.2,0.3,0.3,0.3,0.5l-0.2,0.7c-0.1,0.5-0.2,0.8-0.3,0.8
		l0,0.2c-0.1,0.1-0.1,0.1-0.1,0.1l0.1,0.2c0,0,0,0.1-0.1,0.1c0,0,0,0,0,0.1v0.4c0,0.1,0,0.1-0.1,0.2c0,0,0,0,0.1,0
		c0,0,0.1-0.1,0.2-0.1l0.1,0l0.2-0.2c0,0,0.1,0,0.2-0.1c0.1,0,0.2-0.1,0.4-0.2l1.2-0.9c0.2-0.2,0.3-0.2,0.4-0.2
		c0.1,0,0.1,0.1,0.1,0.2c0,0.1,0,0.2-0.1,0.3c-0.1,0.1-0.1,0.2-0.1,0.3c0,0.1-0.1,0.2-0.1,0.3c-0.1,0-0.1,0.1-0.1,0.2
		c0,0.1-0.1,0.1-0.3,0.2c-0.2,0.1-0.3,0.2-0.4,0.3c-0.1,0.1-0.2,0.2-0.3,0.2l-0.4,0.3l-0.1,0.1c0,0-0.1,0-0.2,0.1
		c-0.1,0-0.2,0.1-0.3,0.1L24.5,50c0,0-0.1,0-0.2,0c-0.1,0-0.2,0-0.2,0.1s-0.1,0.1-0.1,0.1l-0.1,0l-0.2,0.1c-0.1,0-0.2-0.1-0.4-0.2
		c-0.1-0.1-0.2-0.3-0.2-0.4v-0.1l0-0.1c0,0,0-0.1-0.1-0.2c0-0.1-0.1-0.2-0.1-0.2l0-0.1l0-0.1c0-0.2,0-0.3,0-0.3c0,0,0-0.1,0.1-0.2
		c0-0.1,0-0.1,0-0.2l0-0.2c0-0.1,0.1-0.1,0.1-0.1c0,0,0-0.1,0.1-0.2l0-0.2l0.1-0.1c0,0,0.1-0.1,0.1-0.2c0-0.1,0-0.2,0.1-0.3
		c0.1-0.1,0.1-0.1,0.1-0.2c0-0.1,0-0.1-0.1-0.1c0,0-0.1,0-0.2,0.1l-0.2-0.1c0,0,0,0-0.1,0.1c0,0,0,0-0.1,0.1C23,47,23,47,22.9,47.1
		l-0.1,0l-0.1-0.1h0c-0.1,0-0.1,0.1-0.1,0.2c-0.1,0.1-0.2,0.2-0.3,0.2l-0.2,0.1c-0.1,0-0.1,0.1-0.1,0.2c0,0.1-0.1,0.2-0.2,0.2
		C21.7,48,21.7,48,21.6,48c-0.2,0-0.3-0.1-0.3-0.3L21.4,47.2L21.4,47.2z M25.3,42.8l-0.1-0.3v-0.1c0-0.3,0.1-0.4,0.3-0.5
		c0,0,0.2,0,0.4-0.1c0.1,0,0.2,0.1,0.3,0.3c0.1,0.2,0.2,0.3,0.2,0.4c0,0,0,0,0,0.1c0,0,0,0.1,0,0.2c0,0.1-0.1,0.2-0.2,0.3
		c-0.1,0.1-0.2,0.1-0.4,0.1c-0.1,0-0.2-0.1-0.3-0.2C25.4,43,25.3,42.9,25.3,42.8z"/>
	<path fill="#333333" d="M27.9,48.2L27.9,48.2c0-0.1,0-0.2,0-0.3c0-0.1-0.1-0.2-0.1-0.3c0,0,0-0.1,0.1-0.3l0.1-0.3
		c0-0.1,0.1-0.2,0.1-0.2c0-0.1-0.1-0.1-0.1-0.2c0-0.1,0-0.3,0.1-0.3c0.1-0.1,0.1-0.2,0.2-0.4l0.2-0.5l0.3-0.7c0,0,0-0.1,0.1-0.1
		c0.1-0.1,0.1-0.1,0.1-0.2c0-0.1,0.1-0.1,0.1-0.2l0.1,0c0,0,0,0,0-0.1c0,0,0-0.1,0-0.1l0.3-0.5l0.2-0.4c0.1-0.1,0.1-0.2,0.2-0.2
		c0.1-0.2,0.2-0.4,0.3-0.4c0-0.1,0.1-0.2,0.2-0.4l0.2,0c0-0.1,0.1-0.1,0.1-0.2l0-0.2c0,0,0,0,0,0c0-0.1,0.1-0.2,0.1-0.3l0.2-0.3
		l0.1-0.1c0,0,0.1-0.1,0.1-0.2c0.1,0,0.2-0.1,0.2-0.2l0.2-0.2c0-0.1,0.1-0.2,0.2-0.4c0.1,0,0.2-0.1,0.3-0.2l0.1,0
		c0-0.2,0.1-0.4,0.2-0.4l0.1-0.1c0.1,0,0.1-0.1,0.2-0.1l0.1,0c0.1,0,0.2,0,0.3,0c0.2,0,0.4,0.1,0.6,0.2C34,39.6,34,39.8,34,40
		c0,0.1,0,0.2-0.1,0.3l0,0.1c-0.1,0.3-0.1,0.5-0.2,0.5c0,0-0.1,0-0.1,0.1c0,0.2,0,0.3,0,0.3c-0.1,0-0.2,0.2-0.2,0.4
		c0,0-0.1,0.1-0.1,0.2c-0.1,0.1-0.1,0.2-0.2,0.4c0,0.2-0.1,0.2-0.1,0.2h-0.1l0,0.1c0,0.1,0,0.2-0.1,0.2c-0.1,0.1-0.1,0.2-0.1,0.3
		c0,0.1-0.1,0.2-0.2,0.3l-0.1,0.1c0,0.1-0.1,0.1-0.1,0.2c-0.1,0.1-0.1,0.2-0.2,0.3l-0.2,0.4c-0.2,0.3-0.3,0.4-0.4,0.4
		c-0.1,0.2-0.1,0.4-0.1,0.4c0,0-0.1,0.1-0.1,0.1c-0.1,0-0.1,0.1-0.2,0.2c0,0.1-0.1,0.1-0.1,0.2L30.8,46c-0.1,0-0.2,0.1-0.2,0.2
		c-0.1,0-0.2,0.1-0.2,0.2c0,0-0.1,0.1-0.1,0.2L30,46.9c-0.2,0.1-0.2,0.2-0.3,0.4c0,0.1-0.1,0.2-0.2,0.2c-0.1,0-0.3,0-0.4-0.1h0
		c0,0.1-0.1,0.2-0.1,0.3l0,0.2c0,0,0,0.2-0.1,0.6c0,0.1,0.1,0.2,0.1,0.2l0,0.2l0,0.2c0,0.2,0.1,0.3,0.2,0.3l0.2,0c0,0,0.1,0,0.2-0.1
		l0.3-0.2c0,0,0,0,0,0c0.1,0,0.1,0,0.1,0c0.1,0,0.1,0,0.1-0.1v-0.1c0-0.1,0.1-0.1,0.1-0.1c0.1,0,0.1,0,0.1-0.1c0,0,0.1-0.1,0.1-0.1
		h0.1c0.1,0,0.1-0.1,0.1-0.3c0,0,0.1,0,0.1-0.1h0.1c0,0,0.1-0.1,0.2-0.2c0.1-0.1,0.1-0.2,0.1-0.2c0.1,0,0.2,0,0.2-0.1
		c0.2-0.3,0.3-0.5,0.4-0.5h0.1c0.1-0.1,0.2-0.2,0.2-0.3c0-0.1,0-0.1,0.1-0.1s0.1-0.1,0.1-0.1c0,0,0.1-0.1,0.1-0.1
		c0.1,0,0.1,0,0.1,0.1l0,0.2l0.1,0.3c0,0,0,0.1-0.1,0.1c-0.1,0.1-0.1,0.1-0.1,0.2c0,0.2,0,0.3-0.1,0.3c-0.1,0-0.1,0.1-0.1,0.1
		c0,0.1-0.1,0.1-0.2,0.2c-0.1,0.1-0.2,0.1-0.2,0.2l-0.2,0l-0.1,0.1c-0.1,0.2-0.1,0.3-0.2,0.3c-0.1,0-0.2,0.2-0.3,0.4c0,0,0,0,0,0
		l-0.1,0c-0.1,0.1-0.1,0.2-0.2,0.2c-0.1,0-0.1,0.1-0.1,0.1c0,0.1-0.1,0.1-0.2,0.1c-0.1,0-0.2,0.1-0.2,0.1c0,0-0.1,0.1-0.1,0.1
		c0,0-0.1,0-0.1,0.1c0,0-0.1,0.1-0.1,0.1c0,0-0.1,0-0.1,0h0c-0.1,0.1-0.2,0.1-0.3,0.1c-0.1,0-0.1,0-0.2,0c0,0-0.1,0-0.2-0.1
		c-0.1,0-0.2,0-0.3-0.1c-0.1,0-0.2,0-0.2,0c-0.1,0-0.2-0.1-0.4-0.3c-0.2-0.2-0.2-0.4-0.2-0.6c0,0,0-0.1-0.1-0.1
		c-0.1-0.1-0.1-0.2-0.1-0.3v-0.1l0-0.1v-0.2l0-0.1c0.1,0,0.1,0,0.1,0L27.9,48.2z M29.7,45.8l0.2-0.1c0-0.1,0.1-0.2,0.2-0.3
		c0.1-0.1,0.2-0.2,0.3-0.2h0.1c0,0,0-0.1,0-0.1c0,0,0-0.1,0-0.2c0,0,0.1-0.1,0.2-0.3l0.1-0.2c0.1-0.2,0.2-0.3,0.4-0.4
		c0.1-0.2,0.1-0.3,0.2-0.3l0.1,0c0-0.1,0.1-0.2,0.1-0.2l0-0.1v-0.1c0,0,0-0.1,0.1-0.1c0.1-0.1,0.1-0.2,0.2-0.2
		c0-0.1,0.1-0.1,0.1-0.2c0.1,0,0.1-0.1,0.1-0.2l0.1,0c0-0.1,0-0.1,0-0.2l0-0.1c0-0.1,0.1-0.3,0.3-0.6l0.1-0.3c0,0,0-0.1,0.1-0.1
		c0.1-0.1,0.1-0.1,0.1-0.2l0.1-0.3c0-0.1,0-0.2-0.1-0.2c-0.1,0-0.1,0.1-0.2,0.1c-0.1,0-0.1,0.1-0.1,0.3c-0.2,0-0.3,0.1-0.3,0.3
		c0,0.1-0.1,0.2-0.2,0.3l-0.1,0.1c0,0.1-0.1,0.1-0.2,0.2c-0.1,0.1-0.2,0.2-0.3,0.4c-0.3,0.4-0.5,0.6-0.5,0.7L31.1,43l-0.1,0
		c0,0.1,0,0.1,0,0.2c0,0,0,0.1-0.1,0.1c0,0-0.1,0.1-0.1,0.1c0,0-0.1,0.1-0.1,0.2c-0.1,0.1-0.1,0.2-0.1,0.3c0,0.1-0.1,0.2-0.1,0.2
		l-0.1,0c-0.1,0-0.1,0.1-0.1,0.1l0,0.1c0,0,0,0.1,0,0.1c0,0-0.1,0.1-0.1,0.2c0,0.1-0.1,0.2-0.2,0.4c-0.1,0.2-0.2,0.4-0.3,0.6
		c-0.1,0.2-0.1,0.4-0.2,0.4c0,0,0,0,0.1,0C29.5,46.1,29.6,46,29.7,45.8z"/>
	<path fill="#333333" d="M32.7,48.2L32.7,48.2c0-0.1,0-0.2,0-0.3c0-0.1-0.1-0.2-0.1-0.3c0,0,0-0.1,0.1-0.3l0.1-0.3
		c0-0.1,0.1-0.2,0.1-0.2c0-0.1-0.1-0.1-0.1-0.2c0-0.1,0-0.3,0.1-0.3c0.1-0.1,0.1-0.2,0.2-0.4l0.2-0.5l0.3-0.7c0,0,0-0.1,0.1-0.1
		c0.1-0.1,0.1-0.1,0.1-0.2c0-0.1,0.1-0.1,0.1-0.2l0.1,0c0,0,0,0,0-0.1c0,0,0-0.1,0-0.1l0.3-0.5l0.2-0.4c0.1-0.1,0.1-0.2,0.2-0.2
		c0.1-0.2,0.2-0.4,0.3-0.4c0-0.1,0.1-0.2,0.2-0.4l0.2,0c0-0.1,0.1-0.1,0.1-0.2l0-0.2c0,0,0,0,0,0c0-0.1,0.1-0.2,0.1-0.3l0.2-0.3
		l0.1-0.1c0,0,0.1-0.1,0.1-0.2c0.1,0,0.2-0.1,0.2-0.2l0.2-0.2c0-0.1,0.1-0.2,0.2-0.4c0.1,0,0.2-0.1,0.3-0.2l0.1,0
		c0-0.2,0.1-0.4,0.2-0.4l0.1-0.1c0.1,0,0.1-0.1,0.2-0.1l0.1,0c0.1,0,0.2,0,0.3,0c0.2,0,0.4,0.1,0.6,0.2c0.2,0.2,0.3,0.4,0.3,0.6
		c0,0.1,0,0.2-0.1,0.3l0,0.1c-0.1,0.3-0.1,0.5-0.2,0.5c0,0-0.1,0-0.1,0.1c0,0.2,0,0.3,0,0.3c-0.1,0-0.2,0.2-0.2,0.4
		c0,0-0.1,0.1-0.1,0.2C38.1,41.9,38,42,38,42.1c0,0.2-0.1,0.2-0.1,0.2h-0.1l0,0.1c0,0.1,0,0.2-0.1,0.2c-0.1,0.1-0.1,0.2-0.1,0.3
		c0,0.1-0.1,0.2-0.2,0.3l-0.1,0.1c0,0.1-0.1,0.1-0.1,0.2c-0.1,0.1-0.1,0.2-0.2,0.3l-0.2,0.4c-0.2,0.3-0.3,0.4-0.4,0.4
		c-0.1,0.2-0.1,0.4-0.1,0.4c0,0-0.1,0.1-0.1,0.1c-0.1,0-0.1,0.1-0.2,0.2c0,0.1-0.1,0.1-0.1,0.2L35.6,46c-0.1,0-0.2,0.1-0.2,0.2
		c-0.1,0-0.2,0.1-0.2,0.2c0,0-0.1,0.1-0.1,0.2l-0.3,0.3c-0.2,0.1-0.2,0.2-0.3,0.4c0,0.1-0.1,0.2-0.2,0.2c-0.1,0-0.3,0-0.4-0.1h0
		c0,0.1-0.1,0.2-0.1,0.3l0,0.2c0,0,0,0.2-0.1,0.6c0,0.1,0.1,0.2,0.1,0.2l0,0.2l0,0.2c0,0.2,0.1,0.3,0.2,0.3l0.2,0c0,0,0.1,0,0.2-0.1
		l0.3-0.2c0,0,0,0,0,0c0.1,0,0.1,0,0.1,0c0.1,0,0.1,0,0.1-0.1v-0.1c0-0.1,0.1-0.1,0.1-0.1c0.1,0,0.1,0,0.1-0.1c0,0,0.1-0.1,0.1-0.1
		h0.1c0.1,0,0.1-0.1,0.1-0.3c0,0,0.1,0,0.1-0.1h0.1c0,0,0.1-0.1,0.2-0.2C36,48,36,47.9,36,47.9c0.1,0,0.2,0,0.2-0.1
		c0.2-0.3,0.3-0.5,0.4-0.5h0.1c0.1-0.1,0.2-0.2,0.2-0.3c0-0.1,0-0.1,0.1-0.1s0.1-0.1,0.1-0.1c0,0,0.1-0.1,0.1-0.1
		c0.1,0,0.1,0,0.1,0.1l0,0.2l0.1,0.3c0,0,0,0.1-0.1,0.1c-0.1,0.1-0.1,0.1-0.1,0.2c0,0.2,0,0.3-0.1,0.3c-0.1,0-0.1,0.1-0.1,0.1
		c0,0.1-0.1,0.1-0.2,0.2c-0.1,0.1-0.2,0.1-0.2,0.2l-0.2,0l-0.1,0.1c-0.1,0.2-0.1,0.3-0.2,0.3c-0.1,0-0.2,0.2-0.3,0.4c0,0,0,0,0,0
		l-0.1,0c-0.1,0.1-0.1,0.2-0.2,0.2c-0.1,0-0.1,0.1-0.1,0.1c0,0.1-0.1,0.1-0.2,0.1c-0.1,0-0.2,0.1-0.2,0.1c0,0-0.1,0.1-0.1,0.1
		c0,0-0.1,0-0.1,0.1c0,0-0.1,0.1-0.1,0.1c0,0-0.1,0-0.1,0h0c-0.1,0.1-0.2,0.1-0.3,0.1c-0.1,0-0.1,0-0.2,0c0,0-0.1,0-0.2-0.1
		c-0.1,0-0.2,0-0.3-0.1c-0.1,0-0.2,0-0.2,0c-0.1,0-0.2-0.1-0.4-0.3c-0.2-0.2-0.2-0.4-0.2-0.6c0,0,0-0.1-0.1-0.1
		c-0.1-0.1-0.1-0.2-0.1-0.3v-0.1l0-0.1v-0.2l0-0.1c0.1,0,0.1,0,0.1,0L32.7,48.2z M34.5,45.8l0.2-0.1c0-0.1,0.1-0.2,0.2-0.3
		c0.1-0.1,0.2-0.2,0.3-0.2h0.1c0,0,0-0.1,0-0.1c0,0,0-0.1,0-0.2c0,0,0.1-0.1,0.2-0.3l0.1-0.2c0.1-0.2,0.2-0.3,0.4-0.4
		c0.1-0.2,0.1-0.3,0.2-0.3l0.1,0c0-0.1,0.1-0.2,0.1-0.2l0-0.1v-0.1c0,0,0-0.1,0.1-0.1c0.1-0.1,0.1-0.2,0.2-0.2
		c0-0.1,0.1-0.1,0.1-0.2c0.1,0,0.1-0.1,0.1-0.2l0.1,0c0-0.1,0-0.1,0-0.2l0-0.1c0-0.1,0.1-0.3,0.3-0.6l0.1-0.3c0,0,0-0.1,0.1-0.1
		c0.1-0.1,0.1-0.1,0.1-0.2l0.1-0.3c0-0.1,0-0.2-0.1-0.2c-0.1,0-0.1,0.1-0.2,0.1c-0.1,0-0.1,0.1-0.1,0.3c-0.2,0-0.3,0.1-0.3,0.3
		c0,0.1-0.1,0.2-0.2,0.3L37,41.7c0,0.1-0.1,0.1-0.2,0.2c-0.1,0.1-0.2,0.2-0.3,0.4c-0.3,0.4-0.5,0.6-0.5,0.7L35.9,43l-0.1,0
		c0,0.1,0,0.1,0,0.2c0,0,0,0.1-0.1,0.1c0,0-0.1,0.1-0.1,0.1c0,0-0.1,0.1-0.1,0.2c-0.1,0.1-0.1,0.2-0.1,0.3c0,0.1-0.1,0.2-0.1,0.2
		l-0.1,0c-0.1,0-0.1,0.1-0.1,0.1l0,0.1c0,0,0,0.1,0,0.1c0,0-0.1,0.1-0.1,0.2c0,0.1-0.1,0.2-0.2,0.4c-0.1,0.2-0.2,0.4-0.3,0.6
		c-0.1,0.2-0.1,0.4-0.2,0.4c0,0,0,0,0.1,0C34.4,46.1,34.5,46,34.5,45.8z"/>
	<path fill="#333333" d="M36.6,47.2l0.1-0.1h0.1c0,0,0.1,0,0.2-0.1l0.1,0c0.1-0.2,0.2-0.3,0.3-0.3l0.1-0.1c0,0,0.1,0,0.1-0.1
		c0,0,0.1-0.1,0.2-0.2c0.1-0.1,0.2-0.1,0.2-0.1c0.1,0,0.1,0,0.1,0c0-0.1,0.1-0.1,0.2-0.2c0.1-0.1,0.2-0.2,0.3-0.2l0.1-0.1
		c0.1,0,0.2-0.1,0.3-0.2c0.1-0.1,0.2-0.1,0.3-0.1c0.2,0,0.4,0.1,0.5,0.3c0.2,0.2,0.3,0.3,0.3,0.5l-0.2,0.7c-0.1,0.5-0.2,0.8-0.3,0.8
		l0,0.2c-0.1,0.1-0.1,0.1-0.1,0.1l0.1,0.2c0,0,0,0.1-0.1,0.1c0,0,0,0,0,0.1v0.4c0,0.1,0,0.1-0.1,0.2c0,0,0,0,0.1,0
		c0,0,0.1-0.1,0.2-0.1l0.1,0l0.2-0.2c0,0,0.1,0,0.2-0.1c0.1,0,0.2-0.1,0.4-0.2l1.2-0.9c0.2-0.2,0.3-0.2,0.4-0.2
		c0.1,0,0.1,0.1,0.1,0.2c0,0.1,0,0.2-0.1,0.3c-0.1,0.1-0.1,0.2-0.1,0.3c0,0.1-0.1,0.2-0.1,0.3c-0.1,0-0.1,0.1-0.1,0.2
		c0,0.1-0.1,0.1-0.3,0.2c-0.2,0.1-0.3,0.2-0.4,0.3c-0.1,0.1-0.2,0.2-0.3,0.2l-0.4,0.3l-0.1,0.1c0,0-0.1,0-0.2,0.1
		c-0.1,0-0.2,0.1-0.3,0.1L39.8,50c0,0-0.1,0-0.2,0c-0.1,0-0.2,0-0.2,0.1c-0.1,0.1-0.1,0.1-0.1,0.1l-0.1,0l-0.2,0.1
		c-0.1,0-0.2-0.1-0.4-0.2c-0.1-0.1-0.2-0.3-0.2-0.4v-0.1l0-0.1c0,0,0-0.1-0.1-0.2c0-0.1-0.1-0.2-0.1-0.2l0-0.1l0-0.1
		c0-0.2,0-0.3,0-0.3c0,0,0-0.1,0.1-0.2c0-0.1,0-0.1,0-0.2l0-0.2c0-0.1,0.1-0.1,0.1-0.1c0,0,0-0.1,0.1-0.2l0-0.2l0.1-0.1
		c0,0,0.1-0.1,0.1-0.2c0-0.1,0-0.2,0.1-0.3c0.1-0.1,0.1-0.1,0.1-0.2c0-0.1,0-0.1-0.1-0.1c0,0-0.1,0-0.2,0.1l-0.2-0.1
		c0,0,0,0-0.1,0.1c0,0,0,0-0.1,0.1c-0.1,0-0.1,0.1-0.2,0.1l-0.1,0l-0.1-0.1h0c-0.1,0-0.1,0.1-0.1,0.2c-0.1,0.1-0.2,0.2-0.3,0.2
		l-0.2,0.1c-0.1,0-0.1,0.1-0.1,0.2c0,0.1-0.1,0.2-0.2,0.2C36.9,48,36.9,48,36.8,48c-0.2,0-0.3-0.1-0.3-0.3L36.6,47.2L36.6,47.2z
		 M40.5,42.8l-0.1-0.3v-0.1c0-0.3,0.1-0.4,0.3-0.5c0,0,0.2,0,0.4-0.1c0.1,0,0.2,0.1,0.3,0.3c0.1,0.2,0.2,0.3,0.2,0.4c0,0,0,0,0,0.1
		c0,0,0,0.1,0,0.2c0,0.1-0.1,0.2-0.2,0.3c-0.1,0.1-0.2,0.1-0.4,0.1c-0.1,0-0.2-0.1-0.3-0.2C40.6,43,40.5,42.9,40.5,42.8z"/>
	<path fill="#333333" d="M49,48l0.1-0.1c0.1,0,0.1,0,0.2-0.1c0-0.1,0.1-0.1,0.2-0.2c0.1,0,0.2-0.1,0.3-0.3c0.1-0.1,0.2-0.2,0.3-0.2
		c0,0,0.1,0,0.1,0.1c0,0.1,0.1,0.1,0.1,0.1c0,0.2-0.1,0.4-0.2,0.6l0,0.2L50,48.3c-0.1,0-0.1,0.1-0.2,0.2c0,0.1-0.1,0.1-0.2,0.2
		l-0.1,0.1c-0.1,0-0.2,0.1-0.3,0.2c0,0.1-0.1,0.1-0.2,0.2c-0.1,0-0.2,0.1-0.3,0.2c-0.1,0-0.1,0.1-0.2,0.1l0,0.1
		c-0.1,0.1-0.2,0.1-0.3,0.1c-0.1,0-0.2,0.1-0.3,0.1c-0.1,0-0.1,0-0.1,0c-0.1,0-0.2,0-0.3-0.1c-0.1,0-0.2-0.1-0.3-0.1
		c0,0-0.1-0.1-0.1-0.1c0,0,0-0.1-0.1-0.2c-0.1-0.1-0.1-0.2-0.1-0.3l0-0.2c0,0,0-0.1,0-0.1c0,0,0-0.1,0-0.1c0,0,0,0,0-0.1
		c0,0,0,0,0-0.1c0,0,0-0.1,0-0.1c0,0,0-0.1,0-0.1L47,48c0,0,0-0.1,0-0.1s-0.1,0-0.1,0.1c-0.1,0.1-0.1,0.1-0.2,0.1
		c0,0-0.1,0.1-0.1,0.2c0,0.1-0.1,0.1-0.2,0.2l0,0.1c0,0-0.1,0.1-0.1,0.1s-0.1,0.1-0.2,0.1l-0.1,0.1l-0.2,0c0,0,0,0.1-0.1,0.2
		c-0.1,0.1-0.1,0.2-0.2,0.2l-0.7,0.6c-0.1,0-0.2,0.1-0.3,0.2L44.4,50c-0.5,0.3-0.8,0.5-1,0.5c-0.2,0-0.3,0-0.6-0.1
		c-0.2-0.1-0.3-0.2-0.3-0.3l-0.1-0.4c-0.1-0.1-0.1-0.2-0.1-0.3c0-0.1,0-0.1,0-0.1v-0.1l0-0.3c0-0.1,0.1-0.1,0.2-0.1l0-0.2
		c0,0,0.1-0.1,0.2-0.3c0.1-0.2,0.2-0.3,0.2-0.3l0.1-0.1c0-0.1,0-0.1,0.1-0.2c0.1-0.1,0.2-0.2,0.2-0.2c0.1-0.1,0.2-0.2,0.3-0.3
		l0.3-0.3c0.2-0.2,0.4-0.4,0.7-0.5c0,0,0.1-0.1,0.2-0.2c0.1-0.1,0.2-0.2,0.4-0.2c0.1-0.1,0.3-0.1,0.4-0.2c0.1-0.1,0.2-0.1,0.3-0.1
		h0.1c0,0,0.2-0.1,0.5-0.2h0.1c0,0,0.1,0,0.2,0.1h0l0.1-0.1c0,0,0.1,0,0.1,0c0.4,0,0.6,0.3,0.6,0.8c0,0.1,0,0.2,0.1,0.2
		c0.1,0,0.1-0.1,0.3-0.3c0.1-0.2,0.3-0.3,0.7-0.3c0.3,0,0.4,0.2,0.4,0.5c0,0.4-0.2,0.8-0.5,1.1c0,0,0,0.1-0.1,0.2l-0.1,0.4v0
		c0,0,0,0.1-0.1,0.1c-0.1,0.1-0.1,0.1-0.1,0.2l0,0.2l0,0.3c0,0.1,0,0.2,0.1,0.2c0.2,0,0.3-0.1,0.4-0.2c0.1-0.1,0.1-0.2,0.2-0.2
		l0.1,0C48.9,48.2,48.9,48.1,49,48z M46,48c0-0.1,0.1-0.2,0.2-0.3c0.1-0.1,0.2-0.1,0.2-0.2c0.1-0.1,0.3-0.2,0.5-0.4
		c0.2-0.2,0.3-0.3,0.3-0.4c0,0,0,0,0,0h0l-0.1,0l-0.2,0l-0.2,0l-0.1-0.1l-0.1,0l-0.2,0c-0.1,0-0.2,0-0.2,0.1c-0.1,0-0.2,0.1-0.4,0.1
		c-0.2,0-0.4,0.1-0.5,0.2c-0.2,0.1-0.3,0.2-0.3,0.2c0,0.1-0.2,0.2-0.4,0.4c-0.1,0-0.2,0.2-0.3,0.3C44,48,44,48.1,44,48.1l-0.1,0.2
		c0,0-0.1,0.1-0.2,0.1c-0.1,0-0.1,0.1-0.1,0.2c0,0.1-0.1,0.2-0.1,0.3c-0.1,0.1-0.1,0.1-0.1,0.2c0,0.3,0.1,0.4,0.2,0.4
		c0,0,0.1,0,0.3-0.1c0.2-0.1,0.2-0.1,0.3-0.1c0,0,0.1,0,0.1-0.1l0.2-0.1c0,0,0.1,0,0.1,0c0,0,0.1,0,0.1-0.1c0,0,0.1-0.1,0.2-0.1
		c0.1,0,0.1-0.1,0.2-0.2c0.1-0.1,0.3-0.2,0.5-0.3l0.2-0.1c0.1-0.1,0.2-0.1,0.2-0.2C45.9,48.1,45.9,48.1,46,48z"/>
	<path fill="#333333" d="M58,48.6L58,48.6l0.1,0c0,0,0,0,0,0c0-0.1,0-0.2,0.1-0.3c0-0.1,0.1-0.2,0.2-0.3c0.1-0.1,0.3-0.2,0.5-0.3
		l0.2-0.2l0.1-0.1l0.1-0.1c0.1-0.1,0.1-0.1,0.2-0.1c0.1,0,0.1,0,0.1,0.1l-0.1,0.2l0,0.3c0,0.1,0,0.2-0.1,0.3
		c-0.1,0.1-0.2,0.2-0.3,0.4L58.8,49l-0.2,0.1c-0.1,0-0.1,0.1-0.2,0.1L58,49.6c0,0.1,0,0.1-0.1,0.2h-0.1l-0.1,0
		c0,0.1-0.2,0.2-0.4,0.3l-0.1,0.1c0,0-0.1,0.1-0.1,0.1l-0.3,0l-0.2,0c0,0-0.1,0-0.2-0.1c-0.1,0-0.2-0.1-0.2-0.1
		c-0.1,0-0.2-0.1-0.3-0.3c-0.1-0.2-0.2-0.3-0.2-0.4c0,0,0-0.1,0-0.1c0-0.1,0-0.1,0-0.1c0,0,0-0.1,0.1-0.2v0c0,0,0-0.1,0-0.1
		c0-0.1,0-0.1,0-0.2c0-0.1,0-0.1-0.1-0.2c0,0,0.1-0.1,0.1-0.1c0,0,0-0.1,0-0.1c0,0,0-0.1,0-0.1l0.1-0.4l0-0.2l0-0.2
		c0-0.1-0.1-0.2-0.2-0.2c0,0-0.1,0-0.2,0.1l-0.1,0c-0.2,0.1-0.3,0.1-0.3,0.2c-0.1,0.1-0.1,0.1-0.2,0.1c0,0-0.1,0.1-0.2,0.1l-0.1,0.1
		c0,0-0.1,0.1-0.1,0.1c0,0-0.1,0.1-0.3,0.3c-0.2,0.2-0.4,0.4-0.6,0.5c-0.2,0.2-0.3,0.2-0.4,0.3c-0.1,0-0.1,0.1-0.1,0.2
		c0,0-0.1,0.1-0.2,0.1c0,0-0.1,0.1-0.2,0.2c-0.1-0.1-0.1-0.1-0.2-0.1c-0.1,0-0.1,0.1-0.2,0.3c0,0.1-0.1,0.1-0.3,0.1
		c0,0,0,0.1-0.1,0.1l0,0h-0.1c0,0-0.1,0-0.1,0.1C51.5,50,51.4,50,51.3,50c-0.1,0.2-0.1,0.2-0.2,0.2c0,0-0.1,0-0.1,0
		c0,0-0.1,0-0.2-0.1c-0.1,0-0.1-0.1-0.2-0.2c-0.1-0.1-0.1-0.2-0.1-0.3c0-0.7,0.1-1,0.4-1.1l0,0v-0.1c0-0.1,0-0.1,0.1-0.2
		c0.1,0,0.1-0.1,0.2-0.2c0.1-0.1,0.1-0.2,0.1-0.2h0.1c0,0,0-0.1,0-0.2c0,0,0-0.1,0-0.1c0,0,0-0.1,0.1-0.1c0-0.1,0-0.1,0.1-0.3
		c0.1-0.1,0.1-0.2,0.1-0.2l0,0c-0.1,0.1-0.3,0.2-0.3,0.2c-0.1,0-0.2,0.1-0.3,0.3l-0.1,0c-0.3,0.2-0.4,0.3-0.5,0.3
		c-0.1,0-0.1,0.1-0.2,0.2c0,0,0,0.1-0.1,0.1c0,0-0.1,0.1-0.2,0.1h-0.1c-0.1,0-0.2-0.1-0.2-0.3l0.2-0.5c0.1-0.2,0.2-0.3,0.4-0.4
		c0.2-0.1,0.4-0.2,0.5-0.3c0.1-0.1,0.3-0.2,0.4-0.2l0.1-0.1c0.2-0.1,0.3-0.2,0.4-0.4c0.1-0.2,0.2-0.3,0.3-0.3c0.3,0,0.6,0.1,0.7,0.4
		c0.2,0.2,0.3,0.4,0.3,0.6l0,0.2c0,0.1,0,0.2-0.1,0.3c-0.1,0.1-0.1,0.2-0.1,0.2c0,0,0,0.1,0.1,0.1c0,0,0.1,0,0.1-0.1
		c0.1-0.1,0.1-0.1,0.2-0.1s0.1-0.1,0.1-0.1c0.1-0.1,0.2-0.2,0.3-0.3c0.1-0.1,0.2-0.1,0.3-0.1l0.1-0.1l0.1-0.1
		c0.2-0.1,0.3-0.1,0.3-0.2c0.1-0.1,0.1-0.1,0.2-0.1c0.1,0,0.2-0.1,0.3-0.2l0.1,0l0.1-0.1c0,0,0,0,0.1,0c0.1,0,0.1,0,0.3-0.1
		c0.1,0,0.2-0.1,0.2-0.1c0.3,0,0.5,0.1,0.7,0.4c0.2,0.2,0.3,0.4,0.3,0.6l0,0.2l0,0.2v0L57,47.7l0,0.2c0,0.3-0.1,0.5-0.2,0.6
		c0,0,0,0,0,0.1v0.1l0.2,0.4c0.1,0.1,0.1,0.2,0.1,0.2l0.3-0.1c0.1,0,0.2-0.1,0.2-0.2c0,0,0.1-0.1,0.3-0.2
		C57.9,48.6,57.9,48.6,58,48.6z"/>
	<path fill="#333333" d="M62.2,42.3l0.1,0l0.1-0.1h0l0.1,0h0c0.1,0,0.3,0,0.4-0.1C63,42,63.1,42,63.2,42c0.1,0,0.1,0,0.1-0.1
		c0,0,0,0,0,0l0.1,0c0,0,0.1-0.1,0.2-0.3c0.1-0.2,0.2-0.3,0.3-0.4c0.1-0.1,0.2-0.2,0.3-0.4c0,0,0-0.1,0.1-0.1c0-0.1,0.1-0.1,0.1-0.1
		c0.1,0,0.2-0.1,0.2-0.2c0.2-0.2,0.3-0.3,0.4-0.3c0.1,0,0.3,0.1,0.3,0.4l0.1,0.3c0,0,0,0,0,0.1c0,0.1,0,0.2,0,0.2c0,0.1,0,0.1,0,0.2
		c0,0,0,0.1,0,0.1c0,0,0.1,0.1,0.2,0.1c0,0,0.1,0,0.2-0.1l0.1,0c0.1,0,0.1,0.1,0.2,0.1c0,0,0.1,0,0.3-0.1c0.2-0.1,0.3-0.1,0.3-0.1
		c0,0,0.1,0,0.2-0.1h0.1l0.1,0c0,0,0.1,0,0.1-0.1c0.1-0.1,0.2-0.1,0.4-0.1l0.1-0.1h0c0.2,0,0.3,0.1,0.3,0.3c0,0,0,0.1-0.1,0.2
		c-0.1,0.1-0.1,0.2-0.1,0.3l-0.4,0.5c-0.1,0.2-0.3,0.3-0.4,0.3c0,0-0.1-0.1-0.2-0.2c0,0,0,0,0,0c-0.1,0-0.1,0-0.2,0
		c-0.1,0-0.1,0-0.2,0c0,0-0.2,0-0.5,0.1l-0.2,0c0,0-0.1,0-0.2,0L65,42.8c-0.2,0.1-0.3,0.2-0.4,0.4c0,0,0,0-0.1,0.1L64.1,44
		c-0.1,0-0.2,0.1-0.3,0.2l0,0.1c-0.1,0-0.1,0-0.2,0.1c-0.1,0.1-0.1,0.1-0.2,0.1l-0.2,0.2c-0.1,0.1-0.1,0.2-0.2,0.3
		c-0.1,0.1-0.1,0.2-0.1,0.3c0,0.1-0.1,0.2-0.1,0.2c0,0,0,0.1,0,0.1l0,0.1c-0.1,0.1-0.1,0.2-0.1,0.2l0,0.1c-0.1,0.3-0.1,0.4-0.1,0.5
		c0,0,0,0,0,0.1v0.1c0,0.1,0,0.3-0.1,0.5l0,0.1l-0.1,0.4c0,0.1,0,0.2,0.1,0.3c0,0,0,0,0,0.1c0,0.2,0.1,0.4,0.3,0.5
		c0.2,0.2,0.3,0.5,0.3,0.9c0,0,0,0.1,0,0.2c0,0.1,0,0.1,0,0.2c0,0.1-0.1,0.2-0.1,0.2c-0.1,0.1-0.2,0.1-0.2,0.1
		c-0.3,0-0.6-0.2-0.7-0.7c-0.2-0.5-0.2-0.8-0.2-0.9l0-0.3l-0.1-0.2l0.1-0.8l0-0.2l0.2-0.8v-0.3c0,0,0-0.1,0.1-0.1c0,0,0,0,0,0
		c0,0-0.1,0-0.1,0.1c-0.1,0.1-0.1,0.1-0.2,0.2l-0.1,0.1c0,0,0,0-0.1,0c0,0-0.1,0.2-0.3,0.4c-0.1,0-0.2,0.1-0.3,0.2
		c-0.1,0.1-0.2,0.2-0.3,0.2l0,0c0,0.2-0.1,0.3-0.3,0.3l0,0c-0.1,0.2-0.2,0.3-0.3,0.3c-0.1,0.2-0.2,0.3-0.4,0.4
		c0,0.1-0.1,0.1-0.2,0.2c-0.1,0-0.1,0.1-0.1,0.1c0,0-0.1,0-0.1,0c-0.1,0-0.1-0.1-0.1-0.3c0,0,0-0.1,0.1-0.2c0-0.1,0.1-0.1,0.1-0.1
		c0,0,0,0-0.1-0.1c0-0.2,0-0.3,0.1-0.3c0.1,0,0.2-0.1,0.2-0.2c0-0.1,0.1-0.1,0.2-0.2c0.1,0,0.1-0.1,0.1-0.1c0,0,0.1-0.1,0.2-0.3
		c0.2-0.1,0.3-0.2,0.3-0.3c0.1-0.1,0.1-0.1,0.2-0.1l0,0c0-0.1,0.1-0.2,0.2-0.2l0.1-0.1l0-0.1l0.1,0h0.1l0,0c0-0.1,0.1-0.3,0.2-0.3
		c0.1-0.1,0.4-0.3,0.7-0.7c0.3-0.4,0.5-0.6,0.6-0.7c0-0.1,0.1-0.3,0.2-0.4c0.1-0.2,0.2-0.4,0.2-0.5c0,0,0,0-0.1-0.1l-0.4,0.2
		c0,0-0.1,0-0.2-0.1c-0.1,0.1-0.2,0.1-0.2,0.2c0,0.1-0.1,0.1-0.1,0.1l-0.1,0l-0.4,0c-0.4,0-0.6,0.1-0.8,0.2l-0.4,0.1h-0.1
		c0,0-0.1,0-0.2,0.1l-0.2,0C59.6,44,59.4,44,59.3,44c0,0,0,0-0.1,0l-0.9,0.3c-0.1,0-0.2,0.1-0.5,0.4l-0.1,0c-0.1,0-0.1-0.1-0.2-0.2
		c-0.1-0.1-0.1-0.3-0.1-0.4c0-0.6,0.5-0.9,1.5-1l0.4-0.1h0l0.1,0h0c0,0,0.1,0,0.2-0.1c0.1,0,0.3-0.1,0.5-0.2l0.4-0.1l0.1,0
		c0.1,0,0.1,0,0.2-0.1c0.1,0,0.2-0.1,0.3-0.1c0.2,0,0.3,0,0.3-0.1l0.1,0c0,0,0.1,0,0.1-0.1c0.1,0,0.2-0.1,0.3-0.1
		C62.1,42.2,62.2,42.2,62.2,42.3z"/>
	<path fill="#333333" d="M70.8,46.1l0.1-0.2c0-0.1,0.1-0.1,0.1-0.2c0.1-0.1,0.1-0.2,0.2-0.4c0.1-0.2,0.1-0.4,0.2-0.5
		c0.1-0.1,0.2-0.1,0.4-0.1c0.1,0,0.2,0,0.4,0.1c0.1,0.1,0.3,0.3,0.4,0.8c0.1,0.4,0.2,0.7,0.2,0.9c0,0.1,0,0.2,0.1,0.3
		c0,0.1,0.1,0.2,0.1,0.3c0,0.1-0.1,0.2-0.1,0.2l0,0.4l-0.1,0.3V48c-0.1,0.1-0.1,0.2-0.1,0.2c0,0,0,0.1,0,0.1
		c0.3-0.1,0.4-0.2,0.5-0.3c0.1-0.1,0.1-0.1,0.2-0.1c0.1,0,0.1-0.1,0.3-0.2l0.2-0.1c0.1-0.1,0.1-0.1,0.2-0.2c0-0.1,0.1-0.1,0.1-0.1
		c0.1,0,0.1-0.1,0.2-0.1c0.1-0.1,0.2-0.1,0.3-0.2l0.1-0.1c0.1-0.1,0.2-0.2,0.3-0.2c0.1-0.1,0.2-0.1,0.2-0.1c0,0,0.1,0.1,0.1,0.2
		c0,0.1,0.1,0.2,0.1,0.3c0,0.1-0.1,0.2-0.2,0.3c-0.1,0.1-0.2,0.2-0.2,0.2c0,0-0.1,0.1-0.3,0.1c0,0-0.1,0.1-0.3,0.4l-0.2,0.1
		l-0.1,0.1c0,0-0.1,0-0.2,0.1c0,0,0,0,0,0.1c0,0.1-0.1,0.1-0.2,0.1c-0.2,0.2-0.3,0.3-0.3,0.3l-0.2,0c0,0.1-0.1,0.2-0.1,0.2
		c-0.1,0-0.2,0.1-0.2,0.2c0,0,0,0-0.1,0l0,0c-0.1,0.1-0.3,0.2-0.4,0.2l-0.2,0.1l-0.1,0.1c0,0-0.1,0.1-0.2,0.1
		c-0.1,0-0.3,0.1-0.3,0.2l-0.2,0.1c-0.2,0.1-0.3,0.1-0.3,0.2h-0.1c-0.1,0-0.2,0.1-0.4,0.2c-0.2,0.1-0.3,0.2-0.4,0.2
		c-0.3,0-0.6,0-0.7-0.1c-0.1-0.1-0.2-0.2-0.3-0.3c-0.1-0.1-0.2-0.2-0.2-0.3c-0.1-0.1-0.1-0.1-0.1-0.2c0,0,0-0.1,0.1-0.1
		c0.1,0,0.1-0.1,0.2-0.3c0.1-0.1,0.2-0.2,0.5-0.2c0,0,0.1,0,0.1-0.1c0.1,0,0.1-0.1,0.2-0.1c0.1,0,0.1,0.1,0.2,0.2c0,0,0,0,0,0l0.1,0
		c0.1,0,0.1,0.1,0.1,0.1c0.1,0,0.3-0.1,0.5-0.2l0,0h0.1c0,0,0-0.1,0.1-0.2l0.2-0.3l0.3-0.4V48c0,0,0-0.1,0.1-0.2v-0.1
		c0-0.1,0-0.1,0.1-0.1c0.1,0,0.1-0.1,0.1-0.1l0-0.1c0-0.1-0.1-0.1-0.1-0.2l0.1-0.2l0-0.2l0-0.1c0-0.1,0-0.1,0-0.1l0-0.2
		c0,0,0-0.1,0-0.2c0-0.1-0.1-0.2-0.1-0.2c0,0-0.1,0.1-0.3,0.3c-0.2,0.2-0.3,0.3-0.3,0.4c0,0.1-0.1,0.1-0.2,0.2
		c-0.1,0.1-0.2,0.1-0.2,0.2c0,0.1-0.1,0.1-0.2,0.1l-0.6,0.5l-0.7,0.5c0,0.1-0.1,0.1-0.1,0.1c-0.2,0-0.3-0.1-0.3-0.4
		c0-0.1,0-0.2,0.1-0.4c0,0,0.1,0,0.1-0.1c0,0,0,0,0,0c0,0,0,0,0,0l0.1,0h0c0.2-0.1,0.4-0.2,0.4-0.3c0.1,0,0.1-0.1,0.2-0.2l0.4-0.3
		c0.1-0.1,0.2-0.2,0.4-0.4C70.6,46.3,70.7,46.2,70.8,46.1z"/>
	<path fill="#333333" d="M80.9,48.2L80.9,48.2l0,0.2v0c0,0,0,0.1,0,0.2c-0.1,0.1-0.1,0.2-0.2,0.4l-0.1,0.2c0,0.1,0,0.1-0.1,0.2
		c-0.1,0-0.1,0.1-0.1,0.3c0,0.1-0.1,0.3-0.2,0.5L80,50.6c0,0,0,0,0,0c0,0,0,0,0.1,0c0,0,0.1,0,0.1,0c0,0,0,0,0.1,0c0,0,0,0,0.1,0
		c0,0,0.1,0,0.1-0.1c0.1,0,0.2-0.1,0.3-0.1l0.3-0.1c0.1,0,0.2,0,0.4,0l0.3,0c0.2,0,0.4,0.1,0.7,0.2c0.2,0.1,0.4,0.2,0.4,0.4
		c0.1,0.1,0.1,0.3,0.1,0.6c0,0.2-0.1,0.3-0.2,0.3c-0.1,0-0.2-0.1-0.3-0.2c-0.1-0.1-0.2-0.3-0.3-0.4C82,51.1,81.9,51,81.8,51
		l-0.2-0.1l-0.1,0h0c0,0-0.1,0-0.2-0.1h0l-0.3,0.1h-0.4L80.4,51c-0.1,0-0.2,0-0.3,0.1c-0.1,0-0.2,0-0.3,0.1c-0.1,0-0.1,0.1-0.1,0.1
		c0,0.2-0.1,0.3-0.2,0.5c-0.1,0.1-0.1,0.2-0.1,0.2c0,0.1,0,0.1-0.1,0.2c-0.1,0.1-0.1,0.2-0.2,0.3L79,52.6c0,0,0,0.1,0,0.1
		c0,0,0,0,0,0.1v0.1c0,0.2-0.1,0.3-0.3,0.5v0.1c0,0,0,0.1-0.1,0.2l0,0.2c0,0,0,0.1-0.1,0.1c-0.1,0.1-0.1,0.2-0.2,0.3
		s-0.1,0.2-0.3,0.2v0.1l0.1,0.1c0,0,0,0,0,0c0,0,0,0.1-0.1,0.2c0,0.1-0.1,0.2-0.1,0.3l-0.4,0.5c-0.1,0.1-0.1,0.1-0.1,0.2l-0.1,0.2
		c-0.1,0.1-0.1,0.1-0.1,0.2c0,0.1-0.1,0.2-0.2,0.3c-0.1,0.2-0.2,0.2-0.3,0.2c0,0.1,0.1,0.1,0.1,0.1c0,0.1,0,0.2-0.1,0.3
		c-0.2,0-0.2,0-0.2,0.1l0,0.2c0,0,0,0.1-0.1,0.1c-0.1,0-0.1,0.1-0.2,0.1h-0.1l0,0.2c0,0.1-0.1,0.1-0.1,0.1c0,0-0.1,0.1-0.2,0.2
		c-0.1,0.1-0.2,0.2-0.2,0.2l-0.1,0.1l-0.3,0c-0.1,0-0.3-0.1-0.6-0.3c-0.3-0.2-0.4-0.3-0.5-0.5c0-0.1-0.1-0.4-0.1-0.6
		c0,0,0-0.1,0.1-0.2l0-0.1v-0.2c0,0,0-0.1,0.1-0.3c0.1-0.2,0.1-0.3,0.2-0.3c0,0,0.1-0.1,0.2-0.4c0.1-0.2,0.2-0.4,0.2-0.4l0.8-1.2
		c0-0.1,0-0.1,0-0.2h0.1c0,0,0.1,0,0.1,0c0,0,0-0.1,0.1-0.1c0-0.1,0.1-0.2,0.2-0.3c0.1-0.1,0.2-0.1,0.2-0.2c0-0.1,0.1-0.2,0.2-0.2
		l0-0.1c0,0,0.1-0.1,0.2-0.1c0.1,0,0.1-0.1,0.1-0.1l0.3-0.3c0,0,0.1-0.1,0.1-0.1c0.1,0,0.1-0.1,0.2-0.2l0.1,0h0.1l0,0
		c0.1-0.2,0.1-0.2,0.2-0.2c0.1,0,0.1,0,0.1-0.1c0-0.2,0.1-0.3,0.3-0.3c0,0,0.1,0,0.1,0l0.2-0.2c0,0,0.1-0.1,0.2-0.3v0l0.2,0l0,0
		l0-0.2c0,0,0.1-0.1,0.1-0.2c0.1-0.1,0.1-0.2,0.2-0.2c0,0,0.1-0.1,0.1-0.1V50l0-0.1l0-0.1v-0.1l0,0c0,0,0.1-0.1,0.1-0.3
		c0,0,0.1,0,0.1-0.1l0.4-1.1c0,0,0-0.1,0.1-0.2l0.1-0.1c0.1-0.2,0.1-0.3,0.1-0.4c0,0,0,0,0,0c0,0-0.1,0-0.2,0.1
		c-0.1,0.1-0.1,0.1-0.2,0.1l-0.1,0h0c0,0-0.1,0-0.1,0.1c-0.1,0.1-0.1,0.1-0.1,0.1l-0.1,0c-0.1,0.1-0.1,0.2-0.2,0.2L78.7,48h0
		l-0.1-0.1c0,0,0,0,0,0c0,0-0.1,0.1-0.1,0.2l-0.3,0.1c-0.1,0-0.1,0-0.1,0c-0.1,0-0.1,0.1-0.2,0.2c-0.1,0.1-0.1,0.2-0.2,0.2
		c0,0.1-0.2,0.1-0.3,0.1l-0.5,0.4c-0.1,0-0.1,0.1-0.1,0.1c-0.1,0-0.2,0.1-0.3,0.2l-0.2,0c-0.1,0-0.1,0-0.2,0.1
		c-0.1,0.1-0.1,0.1-0.2,0.1h-0.1l-0.1,0l-0.3,0.1c-0.1,0-0.2-0.1-0.4-0.2c-0.2-0.1-0.3-0.2-0.3-0.3l-0.1-0.4c0,0,0-0.1,0.1-0.1
		c0-0.1,0.1-0.1,0.1-0.2c0,0,0,0,0-0.1v-0.1c0-0.2,0.1-0.5,0.2-0.8v0c0,0,0,0-0.1,0c-0.1,0-0.1,0.1-0.2,0.2
		c-0.1,0.1-0.1,0.2-0.2,0.3c-0.1,0.1-0.1,0.1-0.2,0.1c0,0-0.1,0.1-0.1,0.1c0,0-0.1,0-0.1-0.1c0,0,0,0-0.1-0.1c0-0.1-0.1-0.1-0.1-0.1
		c-0.1,0-0.1-0.1-0.1-0.2c0-0.1,0.1-0.2,0.3-0.3l0.1-0.1c0.3-0.3,0.5-0.4,0.6-0.4l0.1-0.1c0.1-0.1,0.2-0.2,0.3-0.3
		c0.1-0.1,0.2-0.2,0.3-0.2l0.5-0.4c0.1-0.1,0.3-0.2,0.6-0.2c0.2,0,0.3,0.1,0.3,0.4s0,0.4-0.1,0.6c-0.1,0.1-0.1,0.3-0.2,0.4
		c0,0.1-0.1,0.3-0.2,0.4c-0.1,0.2-0.2,0.3-0.2,0.4c0,0.1-0.1,0.2-0.2,0.4c-0.1,0.2-0.1,0.3-0.1,0.4c0,0.1,0,0.1,0.1,0.1
		c0.1,0,0.2-0.1,0.4-0.2l0.1,0c0.1,0,0.1-0.1,0.2-0.1l0.2-0.1c0-0.1,0.1-0.1,0.2-0.2l0.2-0.1c0.1,0,0.2-0.1,0.3-0.1
		c0.1-0.1,0.2-0.1,0.2-0.2c0-0.1,0.1-0.1,0.1-0.1c0.1,0,0.1-0.1,0.2-0.2c0.2,0,0.4-0.1,0.6-0.4c0.3-0.2,0.5-0.3,0.8-0.5
		c0.2-0.2,0.4-0.3,0.5-0.3c0,0,0.1-0.1,0.2-0.1c0.1,0,0.2-0.1,0.3-0.2c0.1-0.1,0.3-0.1,0.4-0.1c0.2,0,0.3,0.1,0.4,0.2
		c0.1,0.1,0.2,0.2,0.2,0.3l0,0.4c0,0.3-0.1,0.5-0.2,0.7c0,0.2-0.1,0.4-0.1,0.5l0,0.2C81.1,48,81,48.1,80.9,48.2z M76.6,55l0-0.1
		c0,0,0.1-0.1,0.1-0.1c0.1-0.3,0.1-0.4,0.2-0.5c0-0.1,0-0.2,0-0.2l0.1-0.1l0.3-0.6c0-0.1,0.1-0.2,0.1-0.2s0.1-0.1,0.1-0.2
		c0-0.1,0.1-0.2,0.3-0.5v-0.1c0-0.1,0-0.1-0.1-0.1c0,0-0.1,0.1-0.2,0.1l-0.6,0.5c0,0-0.1,0.1-0.2,0.3l-0.2,0.2
		c-0.1,0.1-0.2,0.2-0.2,0.2c-0.1,0-0.1,0.1-0.2,0.3c-0.1,0.1-0.1,0.2-0.2,0.2h0c0,0,0,0-0.1,0c0,0-0.1,0-0.1,0.1l0.1,0.2
		c0,0,0,0.1-0.1,0.1c0,0.1-0.1,0.1-0.1,0.2c0,0.1-0.1,0.1-0.1,0.1c0,0-0.1,0.1-0.2,0.3L75.4,55c0,0.4-0.1,0.6-0.3,0.8
		c0,0.1-0.1,0.2-0.1,0.3c0,0.1-0.1,0.1-0.1,0.2c0,0.2-0.1,0.3-0.2,0.4c0,0,0,0,0,0.1c0,0,0,0.1,0.1,0.1l0,0
		c-0.1,0.2-0.1,0.4-0.1,0.5c0,0,0,0,0,0l0.3-0.1c0.2-0.1,0.3-0.2,0.4-0.3l0.1-0.3c0,0,0.1-0.1,0.1-0.1c0-0.1,0.1-0.2,0.2-0.2
		c0.1,0,0.1-0.1,0.1-0.1s0.1-0.3,0.3-0.6C76.5,55.3,76.6,55.1,76.6,55z"/>
	<path fill="#333333" d="M84,46.1l0.1-0.2c0-0.1,0.1-0.1,0.1-0.2c0.1-0.1,0.1-0.2,0.2-0.4c0.1-0.2,0.1-0.4,0.2-0.5
		c0.1-0.1,0.2-0.1,0.4-0.1c0.1,0,0.2,0,0.4,0.1c0.1,0.1,0.3,0.3,0.4,0.8c0.1,0.4,0.2,0.7,0.2,0.9c0,0.1,0,0.2,0.1,0.3
		c0,0.1,0.1,0.2,0.1,0.3c0,0.1-0.1,0.2-0.1,0.2l0,0.4L86,47.8V48c-0.1,0.1-0.1,0.2-0.1,0.2c0,0,0,0.1,0,0.1c0.3-0.1,0.5-0.2,0.5-0.3
		c0.1-0.1,0.1-0.1,0.2-0.1c0.1,0,0.2-0.1,0.3-0.2l0.2-0.1c0.1-0.1,0.1-0.1,0.2-0.2c0-0.1,0.1-0.1,0.1-0.1c0.1,0,0.1-0.1,0.2-0.1
		s0.2-0.1,0.3-0.2l0.1-0.1c0.1-0.1,0.2-0.2,0.3-0.2c0.1-0.1,0.2-0.1,0.2-0.1c0,0,0.1,0.1,0.1,0.2c0,0.1,0.1,0.2,0.1,0.3
		c0,0.1-0.1,0.2-0.2,0.3c-0.1,0.1-0.2,0.2-0.2,0.2c0,0-0.1,0.1-0.3,0.1c0,0-0.1,0.1-0.3,0.4l-0.2,0.1l-0.1,0.1c0,0-0.1,0-0.2,0.1
		c0,0,0,0,0,0.1c0,0.1-0.1,0.1-0.2,0.1c-0.2,0.2-0.3,0.3-0.3,0.3l-0.2,0c0,0.1-0.1,0.2-0.1,0.2c-0.1,0-0.2,0.1-0.2,0.2
		c0,0,0,0-0.1,0l0,0c-0.1,0.1-0.3,0.2-0.4,0.2l-0.2,0.1l-0.1,0.1c0,0-0.1,0.1-0.2,0.1c-0.1,0-0.3,0.1-0.3,0.2l-0.2,0.1
		c-0.2,0.1-0.3,0.1-0.3,0.2h-0.1c-0.1,0-0.2,0.1-0.4,0.2c-0.2,0.1-0.3,0.2-0.4,0.2c-0.3,0-0.6,0-0.7-0.1c-0.1-0.1-0.2-0.2-0.3-0.3
		c-0.1-0.1-0.2-0.2-0.2-0.3c-0.1-0.1-0.1-0.1-0.1-0.2c0,0,0-0.1,0.1-0.1c0.1,0,0.1-0.1,0.2-0.3c0.1-0.1,0.2-0.2,0.5-0.2
		c0,0,0.1,0,0.1-0.1C82.9,49,83,49,83,49c0.1,0,0.1,0.1,0.2,0.2c0,0,0,0,0,0l0.1,0c0.1,0,0.1,0.1,0.1,0.1c0.1,0,0.3-0.1,0.5-0.2l0,0
		h0.1c0,0,0-0.1,0.1-0.2l0.2-0.3l0.3-0.4V48c0,0,0-0.1,0.1-0.2v-0.1c0-0.1,0-0.1,0.1-0.1c0.1,0,0.1-0.1,0.1-0.1l0-0.1
		c0-0.1-0.1-0.1-0.1-0.2l0.1-0.2l0-0.2l0-0.1c0-0.1,0-0.1,0-0.1l0-0.2c0,0,0-0.1,0-0.2c0-0.1-0.1-0.2-0.1-0.2c0,0-0.1,0.1-0.3,0.3
		c-0.2,0.2-0.3,0.3-0.3,0.4c0,0.1-0.1,0.1-0.2,0.2c-0.1,0.1-0.2,0.1-0.2,0.2c0,0.1-0.1,0.1-0.2,0.1l-0.6,0.5l-0.7,0.5
		c0,0.1-0.1,0.1-0.1,0.1c-0.2,0-0.3-0.1-0.3-0.4c0-0.1,0-0.2,0.1-0.4c0,0,0.1,0,0.1-0.1c0,0,0,0,0,0c0,0,0,0,0,0l0.1,0h0
		c0.2-0.1,0.4-0.2,0.4-0.3c0.1,0,0.1-0.1,0.2-0.2l0.4-0.3c0.1-0.1,0.2-0.2,0.4-0.4C83.8,46.3,83.9,46.2,84,46.1z"/>
	<path fill="#333333" d="M90,42.3l0.1,0l0.1-0.1h0l0.1,0h0c0.1,0,0.3,0,0.4-0.1C90.8,42,90.9,42,91,42c0.1,0,0.1,0,0.1-0.1
		c0,0,0,0,0,0l0.1,0c0,0,0.1-0.1,0.2-0.3c0.1-0.2,0.2-0.3,0.3-0.4c0.1-0.1,0.2-0.2,0.3-0.4c0,0,0.1-0.1,0.1-0.1
		c0-0.1,0.1-0.1,0.1-0.1c0.1,0,0.2-0.1,0.2-0.2c0.2-0.2,0.3-0.3,0.4-0.3c0.1,0,0.3,0.1,0.3,0.4l0.1,0.3c0,0,0,0,0,0.1
		c0,0.1,0,0.2,0,0.2c0,0.1,0,0.1,0,0.2c0,0,0,0.1,0,0.1c0,0,0.1,0.1,0.2,0.1c0,0,0.1,0,0.2-0.1l0.1,0c0.1,0,0.1,0.1,0.2,0.1
		c0,0,0.1,0,0.3-0.1c0.2-0.1,0.3-0.1,0.3-0.1c0,0,0.1,0,0.2-0.1h0.1l0.1,0c0,0,0.1,0,0.1-0.1c0.1-0.1,0.2-0.1,0.4-0.1l0.1-0.1h0
		c0.2,0,0.3,0.1,0.3,0.3c0,0,0,0.1-0.1,0.2c-0.1,0.1-0.1,0.2-0.1,0.3l-0.4,0.5c-0.1,0.2-0.3,0.3-0.4,0.3c0,0-0.1-0.1-0.2-0.2
		c0,0,0,0,0,0c-0.1,0-0.1,0-0.2,0c-0.1,0-0.1,0-0.2,0c0,0-0.2,0-0.5,0.1l-0.2,0c0,0-0.1,0-0.2,0l-0.5,0.1c-0.2,0.1-0.3,0.2-0.4,0.4
		c0,0,0,0-0.1,0.1L91.9,44c-0.1,0-0.2,0.1-0.3,0.2l0,0.1c-0.1,0-0.1,0-0.2,0.1c-0.1,0.1-0.1,0.1-0.2,0.1l-0.2,0.2
		C91,44.9,91,45,90.9,45.1c-0.1,0.1-0.1,0.2-0.1,0.3c0,0.1-0.1,0.2-0.1,0.2c0,0,0,0.1,0,0.1l0,0.1c-0.1,0.1-0.1,0.2-0.1,0.2l0,0.1
		c-0.1,0.3-0.1,0.4-0.1,0.5c0,0,0,0,0,0.1v0.1c0,0.1,0,0.3-0.1,0.5l0,0.1l-0.1,0.4c0,0.1,0,0.2,0.1,0.3c0,0,0,0,0,0.1
		c0,0.2,0.1,0.4,0.3,0.5c0.2,0.2,0.3,0.5,0.3,0.9c0,0,0,0.1,0,0.2c0,0.1,0,0.1,0,0.2c0,0.1-0.1,0.2-0.1,0.2
		c-0.1,0.1-0.2,0.1-0.2,0.1c-0.3,0-0.6-0.2-0.7-0.7c-0.2-0.5-0.2-0.8-0.2-0.9l0-0.3l-0.1-0.2l0.1-0.8l0-0.2l0.2-0.8v-0.3
		c0,0,0-0.1,0.1-0.1c0,0,0,0,0,0c0,0-0.1,0-0.1,0.1c-0.1,0.1-0.1,0.1-0.2,0.2l-0.1,0.1c0,0,0,0-0.1,0c0,0-0.1,0.2-0.3,0.4
		c-0.1,0-0.2,0.1-0.3,0.2c-0.1,0.1-0.2,0.2-0.3,0.2l0,0c0,0.2-0.1,0.3-0.3,0.3l0,0c-0.1,0.2-0.2,0.3-0.3,0.3
		c-0.1,0.2-0.2,0.3-0.4,0.4c0,0.1-0.1,0.1-0.2,0.2c-0.1,0-0.1,0.1-0.1,0.1c0,0-0.1,0-0.1,0c-0.1,0-0.1-0.1-0.1-0.3
		c0,0,0-0.1,0.1-0.2c0-0.1,0.1-0.1,0.1-0.1c0,0,0,0-0.1-0.1c0-0.2,0-0.3,0.1-0.3c0.1,0,0.2-0.1,0.2-0.2c0-0.1,0.1-0.1,0.2-0.2
		c0.1,0,0.1-0.1,0.1-0.1c0,0,0.1-0.1,0.2-0.3c0.2-0.1,0.3-0.2,0.3-0.3c0.1-0.1,0.1-0.1,0.2-0.1l0,0c0-0.1,0.1-0.2,0.2-0.2l0.1-0.1
		l0-0.1l0.1,0h0.1l0,0c0-0.1,0.1-0.3,0.2-0.3c0.1-0.1,0.4-0.3,0.7-0.7c0.3-0.4,0.5-0.6,0.6-0.7c0-0.1,0.1-0.3,0.2-0.4
		c0.1-0.2,0.2-0.4,0.2-0.5c0,0,0,0-0.1-0.1l-0.4,0.2c0,0-0.1,0-0.2-0.1c-0.1,0.1-0.2,0.1-0.2,0.2c0,0.1-0.1,0.1-0.1,0.1l-0.1,0
		l-0.4,0c-0.4,0-0.6,0.1-0.8,0.2L88,43.8H88c0,0-0.1,0-0.2,0.1l-0.2,0C87.3,44,87.2,44,87.1,44c0,0,0,0-0.1,0l-0.9,0.3
		c-0.1,0-0.2,0.1-0.5,0.4l-0.1,0c-0.1,0-0.1-0.1-0.2-0.2c-0.1-0.1-0.1-0.3-0.1-0.4c0-0.6,0.5-0.9,1.5-1l0.4-0.1h0l0.1,0h0
		c0,0,0.1,0,0.2-0.1c0.1,0,0.2-0.1,0.5-0.2l0.4-0.1l0.1,0c0.1,0,0.1,0,0.2-0.1c0.1,0,0.2-0.1,0.3-0.1c0.2,0,0.3,0,0.3-0.1l0.1,0
		c0,0,0.1,0,0.1-0.1c0.1,0,0.2-0.1,0.3-0.1C89.9,42.2,89.9,42.2,90,42.3z"/>
	<path fill="#333333" d="M93.7,46.7l0.2-0.2c0.1,0,0.2-0.1,0.2-0.2c0-0.1,0.1-0.3,0.3-0.4l0.1-0.2c0.1-0.1,0.3-0.2,0.7-0.3
		c0.1-0.1,0.2-0.1,0.2-0.2c0,0,0,0,0,0l0.1,0c0.1,0,0.2,0,0.3-0.1c0.1,0,0.2-0.1,0.4-0.1l0.4,0c0,0,0.1,0,0.1,0.1
		c0.1,0,0.2,0.1,0.3,0.1c0.1,0,0.3,0.1,0.4,0.2c0.1,0.1,0.2,0.2,0.2,0.3c0,0.2-0.1,0.4-0.3,0.6c-0.2,0.2-0.3,0.3-0.5,0.3
		c-0.1,0.1-0.2,0.2-0.2,0.2c-0.1,0-0.1,0.1-0.2,0.1c-0.1,0.1-0.1,0.1-0.1,0.1c0,0,0,0-0.1,0c0,0,0,0-0.1,0c-0.1,0-0.2,0.1-0.3,0.3
		l-0.2,0c-0.1,0.1-0.2,0.1-0.2,0.2c0,0.1-0.1,0.1-0.2,0.1C95.1,47.9,95,48,94.9,48c0,0-0.1,0-0.1,0c0,0.1-0.1,0.1-0.1,0.2
		c0,0.1,0,0.1-0.1,0.1l-0.1,0.1l-0.1,0l-0.2,0.2c-0.1,0-0.2,0-0.3,0.1c0,0.1,0,0.2-0.1,0.3c0,0.1,0,0.2,0,0.2c0,0.2,0.2,0.3,0.5,0.3
		l0.4-0.1c0.1,0,0.2,0,0.3-0.1c0.1-0.1,0.2-0.1,0.3-0.1c0,0,0.1,0,0.2,0l0.1,0c0-0.1,0.1-0.2,0.2-0.2c0.1-0.1,0.2-0.1,0.3-0.1
		l0.1-0.1c0-0.1,0.1-0.1,0.1-0.1l0.1-0.1c0,0,0.1-0.1,0.1-0.1h0.1l0,0c0.1-0.2,0.2-0.2,0.3-0.3c0.1,0,0.2-0.1,0.2-0.1
		c0-0.1,0.1-0.1,0.2-0.1c0.1,0,0.2-0.1,0.2-0.1c0.1-0.1,0.1-0.1,0.2-0.2c0.1-0.1,0.1-0.1,0.2-0.1c0,0,0.1,0,0.1,0c0,0,0.1,0,0.1,0.1
		c0,0.1,0,0.1,0,0.1c0,0,0,0,0,0c0,0,0-0.1,0-0.1v-0.1c0-0.1,0-0.1,0.1-0.2l0.4-0.3c0-0.1,0-0.2,0.1-0.2c0.1,0,0.1,0,0.1-0.1
		c0,0,0.1,0,0.1,0c0.1,0,0.1,0,0.1,0.1l0,0.2l0,0.2c0,0,0,0.1-0.1,0.1c-0.1,0.1-0.1,0.2-0.1,0.3c0,0.1-0.1,0.2-0.1,0.2h-0.1
		c-0.1,0.1-0.2,0.2-0.3,0.2c-0.1,0-0.1,0.1-0.1,0.1l-0.3,0.3c-0.1,0.1-0.1,0.1-0.2,0.2c0,0-0.1,0.1-0.1,0.1l-0.1-0.1c0,0,0,0,0,0
		c-0.1,0-0.1,0-0.1,0.1c0,0.1,0,0.1-0.1,0.2c-0.2,0.1-0.3,0.2-0.3,0.2l-0.1,0h-0.2c-0.1,0-0.1,0.1-0.2,0.2c0,0.1-0.1,0.2-0.3,0.2
		c-0.1,0-0.2,0.1-0.3,0.1c0,0,0,0-0.1,0c0,0-0.1,0.1-0.3,0.1l-0.8,0.3c-0.1,0-0.1,0-0.1,0l-0.3,0c0,0-0.1,0-0.1-0.1
		c0,0-0.1-0.1-0.1-0.1l-0.2,0.1c-0.1,0-0.2,0.1-0.3,0.1c-0.1,0-0.1,0-0.2-0.1c-0.1,0-0.1-0.1-0.2-0.1c-0.2,0-0.3-0.1-0.4-0.4l-0.1,0
		c0,0-0.1-0.2-0.2-0.6c0,0-0.1-0.1-0.2-0.1c-0.1,0-0.1-0.1-0.1-0.2c0-0.3,0.1-0.4,0.2-0.5c0.1-0.1,0.2-0.2,0.2-0.2l0.1-0.5
		c0,0,0.1-0.1,0.1-0.2l0.2-0.4C93.5,47,93.6,46.9,93.7,46.7z M95.6,46.2l-0.1,0.1c0,0-0.1,0.1-0.2,0.2c-0.1,0.1-0.2,0.2-0.3,0.2
		c-0.1,0.1-0.2,0.2-0.3,0.4c-0.1,0.2-0.2,0.4-0.2,0.4c0,0,0,0.1,0.1,0.1l0.3-0.1c0.1-0.1,0.2-0.1,0.3-0.2c0.1-0.1,0.2-0.2,0.4-0.3
		l0.1-0.1c0,0,0.1-0.1,0.2-0.1c0.1-0.1,0.2-0.1,0.2-0.2l0.1,0c0.1-0.2,0.2-0.3,0.3-0.3c0.1,0,0.2-0.1,0.2-0.1c0-0.1-0.1-0.1-0.2-0.1
		c0,0-0.1,0-0.2,0.1h-0.2c0,0-0.1,0-0.2,0.1L95.6,46.2z"/>
	<path fill="#333333" d="M102.1,46.3l0.3-0.1c0.1-0.1,0.2-0.1,0.2-0.2l0.3-0.2c0.2-0.1,0.3-0.2,0.3-0.2l0.1,0.1c0,0,0,0,0.1-0.1
		c0.1-0.1,0.1-0.1,0.2-0.1c0.1,0,0.3,0.1,0.4,0.2c0.2,0.2,0.3,0.3,0.3,0.4l0,0.3c0,0,0,0.2,0.1,0.4v0.1l0,0.2l0,0.2l-0.1,0.4
		c0,0.1,0,0.2,0.1,0.2c0.1-0.1,0.2-0.2,0.3-0.2l0.1-0.1c0,0,0.1-0.1,0.1-0.1c0,0,0.1,0,0.1-0.1c0-0.1,0.1-0.1,0.1-0.1
		c0.1,0,0.1-0.1,0.1-0.1c0.3-0.4,0.6-0.6,0.8-0.6c0,0,0.1,0,0.1-0.1c0.1-0.1,0.1-0.1,0.1-0.1l0.2-0.2l0.1,0h0c0,0,0.1,0,0.1-0.1
		c0.1-0.1,0.1-0.1,0.2-0.1c0.2,0,0.4,0.1,0.6,0.2c0.1,0.2,0.2,0.3,0.2,0.4l0,0.2l0.1,0.3v0.2l0,0.2c0,0,0,0.1,0.1,0.2
		c0.1,0.1,0.1,0.1,0.1,0.1c-0.1,0.1-0.1,0.1-0.1,0.2l0,0.2l0,0.5c0,0,0,0.1,0.1,0.2c0,0,0.1,0,0.2-0.1c0.1,0,0.1,0,0.2-0.1
		c0,0,0.1,0,0.1,0c0,0,0,0,0,0c0,0,0,0,0.1,0h0c0,0,0.1,0,0.1-0.1c0-0.1,0.1-0.2,0.2-0.2l0.2,0c0,0,0-0.1,0.1-0.1
		c0-0.1,0.2-0.2,0.4-0.4c0.2-0.2,0.4-0.3,0.5-0.3c0.1,0,0.1,0,0.1,0.1c0,0,0,0.1,0,0.2c0,0.1,0.1,0.2,0.1,0.2c0,0.1-0.1,0.2-0.3,0.4
		c-0.2,0.1-0.3,0.3-0.4,0.5l0,0l-0.2,0c0,0,0,0-0.1,0.1c0,0.1-0.1,0.1-0.2,0.2c-0.1,0-0.1,0-0.1,0.1l-0.2,0.1c0,0-0.2,0.1-0.4,0.4
		c-0.2,0.2-0.4,0.3-0.5,0.3c-0.1,0-0.2,0-0.3-0.1c-0.2-0.1-0.3-0.1-0.3-0.2c-0.1-0.1-0.1-0.1-0.2-0.2c-0.1-0.1-0.1-0.2-0.1-0.5
		c0,0,0,0,0-0.1c0,0,0-0.1,0-0.1c-0.1-0.2-0.2-0.3-0.2-0.4c0,0,0-0.1,0-0.1c0,0,0-0.1,0-0.1l0-0.3l0-0.2l0-0.1l0.1-0.5
		c0-0.1,0-0.1-0.1-0.1c0,0-0.1,0-0.1,0.1c0,0-0.1,0.1-0.2,0.1c-0.1,0-0.1,0.1-0.2,0.3c-0.1,0.1-0.2,0.1-0.2,0.2
		c0,0.1-0.1,0.1-0.1,0.1c0,0,0,0-0.1,0c-0.1,0-0.1,0.1-0.1,0.2v0l0,0.1c0,0.1,0,0.1-0.1,0.2c-0.1,0-0.2,0.2-0.3,0.4
		c-0.1,0-0.1,0-0.1,0l-0.1,0.2c-0.1,0-0.1,0.1-0.2,0.2l-0.1,0.1c0,0.1-0.1,0.1-0.1,0.2l-0.1,0.1c-0.3,0.3-0.4,0.5-0.5,0.5
		c-0.1,0-0.2-0.1-0.4-0.4c-0.1-0.3-0.2-0.5-0.2-0.6l0-0.3c0,0,0-0.1-0.1-0.1v0c0,0,0-0.1,0.1-0.2v-0.3c0,0,0,0,0-0.1v0
		c0,0,0-0.1,0.1-0.1l-0.1-0.3l0-0.1l0-0.3l0-0.3c0,0,0,0,0-0.1c0,0-0.1-0.1-0.1-0.1c0,0-0.2,0.1-0.4,0.2c-0.2,0.1-0.3,0.2-0.4,0.3
		c-0.1,0.1-0.2,0.2-0.3,0.3c-0.1,0.1-0.2,0.2-0.3,0.5c0,0,0,0,0,0c0,0,0,0-0.1,0h0c0,0-0.1,0.1-0.3,0.4l0,0l-0.2,0
		c-0.1,0-0.2,0.2-0.2,0.5c0,0.1,0,0.1-0.1,0.1c-0.1,0-0.1,0.1-0.2,0.2c0,0.1-0.1,0.2-0.2,0.3c-0.1,0.1-0.2,0.1-0.2,0.1
		c0,0-0.1,0.1-0.2,0.3c-0.1,0.2-0.2,0.3-0.2,0.3c0,0-0.1,0.1-0.1,0.1c-0.1,0-0.1,0.1-0.1,0.1l0,0.2c0,0.1-0.1,0.1-0.3,0.1
		c-0.4,0-0.5-0.4-0.5-1.1c0-0.1,0-0.2,0.1-0.3c0.1-0.1,0.1-0.2,0.2-0.4c0.1-0.1,0.2-0.3,0.4-0.5c0.2-0.2,0.3-0.4,0.3-0.4l0.1-0.2
		c0-0.1,0-0.1,0-0.2c0,0,0-0.1,0-0.1c0-0.1,0-0.1-0.1-0.1c-0.1,0-0.2,0-0.3,0.1c-0.1,0.1-0.1,0.1-0.2,0.1c-0.1,0-0.1,0.1-0.2,0.1
		c-0.1,0-0.2,0.1-0.3,0.2c-0.1,0.1-0.2,0.2-0.2,0.2c0,0-0.1,0.1-0.1,0.1c0,0.1-0.1,0.1-0.1,0.1c0,0-0.1,0-0.1,0.1
		c0,0-0.1,0.1-0.2,0.1c-0.1,0-0.1-0.1-0.1-0.2c0-0.1-0.1-0.2-0.1-0.2c0-0.4,0.3-0.8,0.9-1.1c0.1,0,0.1-0.1,0.2-0.1
		c0,0,0.1-0.1,0.1-0.1l0-0.1c0-0.1,0.2-0.2,0.5-0.3h0.1l0.6-0.2c0.3-0.1,0.4,0.2,0.4,0.9l0,0.2l0,0.1c0.1-0.1,0.2-0.2,0.3-0.3
		c0.1-0.1,0.2-0.1,0.2-0.2C101.8,46.4,101.9,46.3,102.1,46.3z"/>
</g>
</svg>
